# Max2Obj Version 4.0 Mar 10th, 2001
#
# object forcefield to come ...
#
v  11.683701 2.396775 -6.745588
v  13.491176 2.396775 0
v  6.745587 2.396775 -11.683702
v  -0.000001 2.396775 -13.491176
v  -6.745589 2.396775 -11.683701
v  -11.683702 2.396775 -6.745587
v  -13.491176 2.396775 0.000001
v  -11.683701 2.396775 6.745589
v  -6.745586 2.396775 11.683702
v  0.000002 2.396775 13.491176
v  6.745589 2.396775 11.683701
v  11.683702 2.396775 6.745586
v  13.491176 -1.691888 0
v  11.683701 -1.691888 -6.745588
v  6.745587 -1.691888 -11.683702
v  -0.000001 -1.691888 -13.491176
v  -6.745589 -1.691888 -11.683701
v  -11.683702 -1.691888 -6.745587
v  -13.491176 -1.691888 0.000001
v  -11.683701 -1.691888 6.745589
v  -6.745586 -1.691888 11.683702
v  0.000002 -1.691888 13.491176
v  6.745589 -1.691888 11.683701
v  11.683702 -1.691888 6.745586
# 24 vertices

vt  0.490919 0.145003 0
vt  0.490919 0.145003 0
vt  0.490919 0.145003 0
vt  0.490919 0.145003 0
vt  0.490919 0.002749 0
vt  0.490919 0.002749 0
vt  0.490919 0.002749 0
vt  0.490919 0.002749 0
vt  0.490919 0.145003 0
vt  0.490919 0.145003 0
vt  0.490919 0.002749 0
vt  0.490919 0.002749 0
vt  0.490919 0.145003 0
vt  0.490919 0.145003 0
vt  0.010599 0.145003 0
vt  0.490919 0.002749 0
vt  0.490919 0.002749 0
vt  0.010599 0.002749 0
vt  0.490919 0.145003 0
vt  0.490919 0.002749 0
vt  0.490919 0.145003 0
vt  0.490919 0.145003 0
vt  0.490919 0.145003 0
vt  0.010599 0.145003 0
vt  0.010599 0.002749 0
vt  0.010599 0.145003 0
vt  0.010599 0.002749 0
vt  0.010599 0.145003 0
vt  0.010599 0.002749 0
vt  0.010599 0.145003 0
vt  0.010599 0.002749 0
vt  0.010599 0.145003 0
vt  0.010599 0.002749 0
vt  0.010599 0.145003 0
vt  0.010599 0.002749 0
vt  0.010599 0.145003 0
vt  0.010599 0.002749 0
vt  0.010599 0.145003 0
vt  0.490919 0.002749 0
vt  0.490919 0.002749 0
vt  0.490919 0.002749 0
vt  0.010599 0.002749 0
vt  0.010599 0.145003 0
vt  0.010599 0.002749 0
vt  0.010599 0.145003 0
vt  0.010599 0.002749 0
vt  0.010599 0.145003 0
vt  0.010599 0.002749 0
vt  0.010599 0.145003 0
vt  0.490919 0.145371 0
vt  0.010599 0.002749 0
vt  0.490919 0.002936 0
vt  0.490919 0.145371 0
vt  0.490919 0.145371 0
vt  0.010599 0.145003 0
vt  0.490919 0.002936 0
vt  0.490919 0.002936 0
vt  0.010599 0.002749 0
vt  0.010599 0.145003 0
vt  0.010599 0.145003 0
vt  0.010599 0.002749 0
vt  0.010599 0.002749 0
vt  0.010599 0.145003 0
vt  0.010599 0.002749 0
vt  0.010599 0.145003 0
vt  0.010599 0.002749 0
vt  0.010599 0.145003 0
vt  0.010599 0.002749 0
vt  0.010599 0.145003 0
vt  0.010599 0.002749 0
vt  0.010599 0.145003 0
vt  0.010599 0.002749 0
vt  0.010599 0.145003 0
vt  0.010599 0.002749 0
vt  0.010599 0.145003 0
vt  0.010599 0.002749 0
vt  0.010599 0.145003 0
vt  0.010599 0.002749 0
vt  0.490919 0.145371 0
vt  0.490919 0.145371 0
vt  0.490919 0.145371 0
vt  0.490919 0.002936 0
vt  0.490919 0.145371 0
vt  0.490919 0.145371 0
vt  0.490919 0.145371 0
vt  0.490919 0.145371 0
vt  0.490919 0.002936 0
vt  0.490919 0.145371 0
vt  0.490919 0.145371 0
vt  0.490919 0.002936 0
vt  0.490919 0.002936 0
vt  0.490919 0.002936 0
vt  0.490919 0.002936 0
vt  0.490919 0.002936 0
vt  0.490919 0.002936 0
vt  0.490919 0.002936 0
# 96 texture vertices

vn  -0.965926 0 0.258819
vn  -0.965926 0 0.258819
vn  -0.707107 0 0.707107
vn  -0.258819 0 0.965926
vn  0.258819 0 0.965926
vn  0.707107 0 0.707107
vn  0.965926 0 0.258819
vn  0.965926 0 -0.258819
vn  0.707107 0 -0.707107
vn  0.258819 0 -0.965926
vn  -0.258819 0 -0.965926
vn  -0.707107 0 -0.707107
vn  -0.965926 0 0.258819
vn  -0.965926 0 0.258819
vn  -0.707107 0 0.707107
vn  -0.258819 0 0.965926
vn  0.258819 0 0.965926
vn  0.707107 0 0.707107
vn  0.965926 0 0.258819
vn  0.965926 0 -0.258819
vn  0.707107 0 -0.707107
vn  0.258819 0 -0.965926
vn  -0.258819 0 -0.965926
vn  -0.707107 0 -0.707107
# 24 vertex normals

g forcefield
s 0
f -23/-48/-23 -24/-44/-24 -12/-46/-12
f -11/-40/-11 -12/-46/-12 -24/-44/-24
f -24/-37/-24 -22/-18/-22 -11/-35/-11
f -10/-15/-10 -11/-35/-11 -22/-18/-22
f -22/-34/-22 -21/-17/-21 -10/-33/-10
f -9/-6/-9 -10/-33/-10 -21/-17/-21
f -21/-32/-21 -20/-16/-20 -9/-31/-9
f -8/-10/-8 -9/-31/-9 -20/-16/-20
f -20/-30/-20 -19/-14/-19 -8/-29/-8
f -7/-5/-7 -8/-29/-8 -19/-14/-19
f -19/-28/-19 -18/-13/-18 -7/-27/-7
f -6/-4/-6 -7/-27/-7 -18/-13/-18
f -18/-26/-18 -17/-12/-17 -6/-25/-6
f -5/-3/-5 -6/-25/-6 -17/-12/-17
f -17/-24/-17 -16/-11/-16 -5/-23/-5
f -4/-7/-4 -5/-23/-5 -16/-11/-16
f -16/-22/-16 -15/-9/-15 -4/-21/-4
f -3/-2/-3 -4/-21/-4 -15/-9/-15
f -15/-20/-15 -14/-8/-14 -3/-19/-3
f -2/-1/-2 -3/-19/-3 -14/-8/-14
f -14/-38/-14 -13/-47/-13 -2/-36/-2
f -1/-45/-1 -2/-36/-2 -13/-47/-13
f -13/-42/-13 -23/-43/-23 -1/-39/-1
f -12/-41/-12 -1/-39/-1 -23/-43/-23
# 24 faces

g
