# Max2Obj Version 4.0 Mar 10th, 2001
#
mtllib ./roid01.mtl
g
# object GeoSphere01 to come ...
#
v  13.687955 3.607818 -0.438791
v  -9.738291 2.648153 5.31442
v  4.243203 3.229637 4.029527
v  -8.301835 -9.082516 0.529358
v  9.676857 4.17079 0.616314
v  1.646947 9.14846 -4.782132
v  -6.295936 7.035289 -3.983094
v  -2.345178 10.075603 2.372376
v  3.78494 9.838375 5.501235
v  8.970871 7.838008 -6.089458
v  -6.63537 2.723047 -0.294036
v  -1.607107 4.942374 8.189928
v  8.330172 6.064291 4.193912
v  -13.546144 -7.222875 -3.213951
v  -7.026361 -1.799874 6.737828
v  7.291568 0.911438 8.769842
v  15.113292 1.075507 3.867399
v  13.771564 -1.678212 -7.86899
v  -2.669678 0.882376 -9.90101
v  0.792896 0.30277 10.379539
v  11.721944 -7.095693 -8.463616
v  -10.591215 -10.520349 -3.774815
v  -7.926912 -12.099907 6.508553
v  16.527931 -5.261911 -1.570587
v  8.433714 -9.756245 -2.617333
v  6.0252 -11.152536 -3.680131
v  -5.61516 -7.300212 -0.098457
v  10.866135 -12.974995 3.738134
# 28 vertices

vt  0.441761 0.121773 0
vt  0.406692 0.291486 0
vt  0.689675 0.961816 0
vt  0.681383 0.36064 0
vt  0.221648 0.497962 0
vt  0.541548 0.527909 0
vt  0.038673 0.55815 0
vt  0.428683 0.597663 0
vt  0.408843 0.48691 0
vt  0.31452 0.250941 0
vt  0.46492 0.387308 0
vt  0.330794 0.593396 0
vt  0.322208 0.404375 0
vt  0.35239 0.126715 0
vt  0.885642 0.561845 0
vt  0.344523 0.808927 0
vt  0.840646 0.65758 0
vt  0.561444 0.884967 0
vt  0.802261 0.99292 0
vt  0.212932 0.017553 0
vt  0.991507 0.683334 0
vt  0.811792 0.772644 0
vt  0.736221 0.9116 0
vt  0.099317 0.130826 0
vt  0.964733 0.831039 0
vt  0.619829 0.390919 0
vt  0.663569 0.491273 0
vt  0.665225 0.495048 0
vt  0.527597 0.25668 0
vt  0.493567 0.002501 0
vt  0.556619 0.674776 0
vt  0.072149 0.715034 0
vt  0.007803 0.383789 0
vt  0.271373 0.337378 0
vt  0.587633 0.131723 0
vt  0.109028 0.499116 0
vt  0.859091 0.756471 0
# 37 texture vertices

vn  0.73047 0.682621 -0.021034
vn  -0.965948 0.102366 0.237624
vn  0.139412 0.437283 0.888452
vn  -0.216525 -0.95836 0.186182
vn  0.276847 0.959397 -0.053966
vn  0.084487 0.85477 -0.512084
vn  -0.699183 0.653211 -0.290617
vn  -0.387285 0.904222 0.17998
vn  0.36838 0.721755 0.585975
vn  0.300209 0.809386 -0.504746
vn  -0.902367 0.412279 0.125539
vn  -0.078899 0.459956 0.88443
vn  0.406149 0.781602 0.473435
vn  -0.970532 -0.188455 -0.150174
vn  -0.731663 0.029036 0.681048
vn  0.25052 0.320273 0.9136
vn  0.824285 0.288553 0.487125
vn  0.687098 0.068136 -0.723363
vn  -0.231283 0.154495 -0.960541
vn  0.044353 0.195167 0.979767
vn  0.630922 -0.520182 -0.575628
vn  -0.430279 -0.864071 -0.261231
vn  -0.589374 -0.729996 0.34604
vn  0.933756 -0.321985 -0.156285
vn  0.5815 -0.726342 -0.366449
vn  0.06521 -0.939664 -0.335827
vn  0.081976 -0.996574 0.011008
vn  0.438431 -0.842115 0.31404
# 28 vertex normals

g GeoSphere01
usemtl 04_-_Default_[GeoSphere01]
s 1
f -24/-12/-24 -28/-34/-28 -19/-11/-19
f -24/-12/-24 -19/-11/-19 -23/-32/-23
f -23/-32/-23 -19/-10/-19 -11/-23/-11
f -23/-32/-23 -22/-30/-22 -21/-29/-21
f -22/-30/-22 -18/-26/-18 -21/-29/-21
f -21/-29/-21 -18/-26/-18 -27/-33/-27
f -23/-32/-23 -21/-29/-21 -20/-27/-20
f -21/-29/-21 -27/-33/-27 -17/-25/-17
f -21/-29/-21 -17/-25/-17 -20/-27/-20
f -20/-27/-20 -17/-25/-17 -26/-36/-26
f -23/-32/-23 -20/-27/-20 -24/-12/-24
f -20/-27/-20 -26/-36/-26 -16/-9/-16
f -20/-27/-20 -16/-9/-16 -24/-12/-24
f -24/-12/-24 -16/-9/-16 -28/-34/-28
f -12/-24/-12 -5/-18/-5 -28/-37/-28
f -28/-37/-28 -5/-18/-5 -11/-8/-11
f -11/-23/-11 -8/-21/-8 -10/-7/-10
f -22/-30/-22 -10/-7/-10 -15/-22/-15
f -10/-7/-10 -8/-21/-8 -7/-20/-7
f -10/-7/-10 -7/-20/-7 -15/-22/-15
f -15/-22/-15 -7/-6/-7 -25/-31/-25
f -14/-2/-14 -25/-31/-25 -6/-5/-6
f -26/-36/-26 -9/-4/-9 -13/-28/-13
f -9/-4/-9 -6/-5/-6 -1/-14/-1
f -9/-4/-9 -1/-14/-1 -13/-28/-13
f -13/-28/-13 -1/-14/-1 -12/-24/-12
f -11/-8/-11 -19/-3/-19 -28/-37/-28
f -10/-7/-10 -22/-30/-22 -23/-32/-23
f -10/-7/-10 -23/-32/-23 -11/-23/-11
f -25/-31/-25 -14/-2/-14 -15/-22/-15
f -14/-2/-14 -27/-33/-27 -18/-26/-18
f -14/-2/-14 -18/-26/-18 -15/-22/-15
f -15/-22/-15 -18/-26/-18 -22/-30/-22
f -6/-5/-6 -9/-4/-9 -14/-2/-14
f -9/-4/-9 -26/-36/-26 -17/-25/-17
f -9/-4/-9 -17/-25/-17 -14/-2/-14
f -14/-2/-14 -17/-25/-17 -27/-33/-27
f -12/-24/-12 -28/-37/-28 -16/-9/-16
f -12/-24/-12 -16/-9/-16 -13/-28/-13
f -13/-28/-13 -16/-9/-16 -26/-36/-26
f -1/-13/-1 -3/-16/-3 -4/-1/-4
f -3/-16/-3 -8/-21/-8 -4/-1/-4
f -4/-1/-4 -8/-21/-8 -11/-23/-11
f -1/-13/-1 -2/-15/-2 -3/-16/-3
f -2/-15/-2 -25/-35/-25 -7/-20/-7
f -2/-15/-2 -7/-20/-7 -3/-16/-3
f -3/-16/-3 -7/-20/-7 -8/-21/-8
f -1/-13/-1 -6/-19/-6 -2/-15/-2
f -2/-15/-2 -6/-19/-6 -25/-35/-25
f -4/-1/-4 -11/-23/-11 -5/-17/-5
f -4/-1/-4 -5/-17/-5 -1/-13/-1
f -1/-14/-1 -5/-18/-5 -12/-24/-12
# 52 faces

g
