# Max2Obj Version 4.0 Mar 10th, 2001
#
mtllib ./ship02.mtl
g
# object (null) to come ...
#
v  0 -0.92559 -6.179658
v  0.343291 -0.950818 -6.043056
v  0.609558 -0.976047 -5.882489
v  0.811637 -1.001275 -5.70195
v  0.962365 -1.026504 -5.505433
v  1.074582 -1.051732 -5.296935
v  1.161123 -1.07696 -5.080447
v  1.23532 -1.10498 -4.859837
v  1.730277 -1.198647 -3.111786
v  2.526892 -1.192739 -0.692126
v  3.851349 -0.70796 -0.105605
v  4.367816 -0.541349 2.116992
v  2.003345 -0.619202 3.830693
v  1.897103 -0.727715 2.747203
v  0.409339 -0.89224 2.747203
v  -0.343292 -0.950818 -6.043056
v  -0.609559 -0.976047 -5.882489
v  -0.811638 -1.001275 -5.70195
v  -0.962366 -1.026503 -5.505433
v  -1.074583 -1.051732 -5.296935
v  -1.161124 -1.07696 -5.080447
v  -1.23532 -1.104979 -4.859837
v  -1.730278 -1.20012 -3.112495
v  -2.526893 -1.192738 -0.692125
v  -3.85135 -0.70796 -0.105604
v  -4.367817 -0.541349 2.116993
v  -2.003345 -0.619202 3.830694
v  -1.897104 -0.727715 2.747204
v  0 -1.287044 -3.111077
v  0 -1.38676 -0.692155
v  0 -1.109561 -5.261453
v  -0.409339 -0.89224 2.747203
v  0.280858 -0.89231 3.590122
v  -0.280858 -0.897034 3.590122
v  -0.000001 -0.92559 -6.179658
v  -0.000001 -0.535572 -6.178652
v  -0.355711 -0.484296 -6.011814
v  -0.62873 -0.432866 -5.835015
v  -0.832838 -0.381308 -5.649914
v  -0.981819 -0.329648 -5.458174
v  -1.089454 -0.277911 -5.261453
v  -1.169524 -0.226122 -5.061411
v  -1.235813 -0.174308 -4.85971
v  -1.730277 0.179263 -3.111077
v  -2.526981 0.4206 -0.692155
v  -3.851265 0.069804 -0.105676
v  -4.36777 0.161182 2.116889
v  -2.003245 0.439073 3.830811
v  -1.897005 0.757204 2.74732
v  -0.409338 0.808845 2.74732
v  -0.280858 0.672947 3.590238
v  -0.280859 -0.89231 3.590122
v  0 -0.535572 -6.178652
v  0.355711 -0.484296 -6.011814
v  0.628729 -0.432866 -5.835015
v  0.832838 -0.381308 -5.649915
v  0.981819 -0.329648 -5.458174
v  1.089453 -0.277911 -5.261453
v  1.169524 -0.226122 -5.061412
v  1.235812 -0.174308 -4.85971
v  1.730277 0.179263 -3.111077
v  2.526981 0.420599 -0.692156
v  3.851265 0.069803 -0.105677
v  4.367769 0.161182 2.116888
v  2.003244 0.439073 3.83081
v  1.897004 0.757204 2.74732
v  0.409338 0.808845 2.747319
v  -0.355711 -0.484296 -6.011814
v  -0.62873 -0.432866 -5.835014
v  -0.832838 -0.381308 -5.649914
v  -0.981819 -0.329648 -5.458174
v  -1.089454 -0.277911 -5.261453
v  -1.169524 -0.226122 -5.061411
v  -1.235813 -0.174309 -4.85971
v  -1.730278 0.179262 -3.111077
v  -2.526983 0.420599 -0.692155
v  -3.851266 0.069803 -0.105676
v  -4.367771 0.161181 2.11689
v  -2.003247 0.439072 3.830811
v  -1.897006 0.757203 2.74732
v  0 0.534685 -3.111077
v  0 0.92904 -0.692155
v  0 -0.167228 -5.261453
v  -0.40934 0.808845 2.74732
v  0.280858 0.672947 3.590238
v  -0.280858 0.672947 3.590239
v  1.70266 0.681121 2.998211
v  0.554316 0.681121 2.998386
v  0.554316 -0.93054 2.998386
v  1.152718 1.050421 2.989287
v  1.748967 -0.674649 2.713287
v  1.771903 0.517895 2.713287
v  0.494437 0.517895 2.711696
v  0.494436 -0.724625 2.711696
v  1.702659 -0.93054 2.998212
v  1.152782 0.394492 6.054373
v  1.651198 -0.456319 5.796679
v  1.156255 -0.678122 6.054474
v  0.638455 0.211084 5.746202
v  0.496499 -0.07026 2.742343
v  1.648328 0.211067 5.741345
v  1.759259 -0.070265 2.743404
v  0.656343 -0.456319 5.796679
v  1.128488 -1.320516 2.998299
v  -1.702663 0.68112 2.998212
v  -0.554319 0.68112 2.998386
v  -0.554318 -0.930541 2.998386
v  -1.152721 1.050421 2.989287
v  -1.748969 -0.674649 2.713287
v  -1.771906 0.517894 2.713288
v  -0.494439 0.517894 2.711696
v  -0.494438 -0.724625 2.711696
v  -1.702661 -0.930541 2.998211
v  -1.152786 0.394491 6.054373
v  -1.651201 -0.456319 5.796679
v  -1.156258 -0.678123 6.054473
v  -0.638458 0.211083 5.746203
v  -0.496501 -0.07026 2.742343
v  -1.648332 0.211067 5.741345
v  -1.759261 -0.070265 2.743405
v  -0.656346 -0.456319 5.79668
v  -1.128489 -1.320516 2.998299
# 122 vertices

vt  0.993683 0.563577 0
vt  0.981809 0.527019 0
vt  0.964264 0.499849 0
vt  0.945884 0.47953 0
vt  0.926838 0.464692 0
vt  0.907291 0.453965 0
vt  0.88741 0.445978 0
vt  0.867362 0.439361 0
vt  0.693552 0.389974 0
vt  0.45313 0.31045 0
vt  0.394982 0.178697 0
vt  0.174049 0.127059 0
vt  0.003329 0.361956 0
vt  0.111051 0.372656 0
vt  0.110863 0.52058 0
vt  0.981719 0.597758 0
vt  0.964105 0.624883 0
vt  0.945674 0.645155 0
vt  0.92659 0.659944 0
vt  0.907016 0.670622 0
vt  0.887115 0.678558 0
vt  0.86705 0.685124 0
vt  0.693115 0.73407 0
vt  0.452492 0.812983 0
vt  0.394009 0.944588 0
vt  0.172946 0.995665 0
vt  0.002824 0.760335 0
vt  0.110572 0.749908 0
vt  0.693333 0.562022 0
vt  0.452811 0.561717 0
vt  0.907153 0.562293 0
vt  0.11076 0.601984 0
vt  0.027033 0.533249 0
vt  0.026962 0.589103 0
vt  0.488403 0.313167 0
vt  0.839061 0.171428 0
vt  0.991266 0.006136 0
vt  0.596023 0.007384 0
vt  0.788764 0.389897 0
vt  0.982719 0.323157 0
vt  0.99547 0.176075 0
vt  0.097502 0.69183 0
vt  0.421392 0.1378 0
vt  0.415352 0.207358 0
vt  0.829978 0.276251 0
vt  0.305188 0.010092 0
vt  0.268379 0.012627 0
vt  0.231535 0.015161 0
vt  0.194044 0.017698 0
vt  0.154838 0.020304 0
vt  0.163542 0.083353 0
vt  0.201994 0.088558 0
vt  0.237487 0.093843 0
vt  0.271526 0.099137 0
vt  0.305132 0.104433 0
vt  0.59252 0.140625 0
vt  0.092994 0.615011 0
vt  0.111966 0.023133 0
vt  0.062813 0.026385 0
vt  0.005605 0.03016 0
vt  0.007155 0.069798 0
vt  0.068257 0.073771 0
vt  0.992185 0.166666 0
vt  0.016874 0.616407 0
vt  0.091606 0.736014 0
vt  0.010302 0.693437 0
vt  0.011368 0.737494 0
vt  0.119862 0.078374 0
vt  0.9574 0.469952 0
vt  0.989044 0.327921 0
vt  0.808903 0.321388 0
vt  0.506418 0.251249 0
vt  0.993683 0.563577 0
vt  0.981809 0.527019 0
vt  0.964264 0.499849 0
vt  0.945884 0.47953 0
vt  0.926838 0.464692 0
vt  0.907291 0.453965 0
vt  0.88741 0.445978 0
vt  0.867362 0.439361 0
vt  0.693552 0.389974 0
vt  0.45313 0.31045 0
vt  0.488403 0.313167 0
vt  0.839061 0.171428 0
vt  0.394982 0.178697 0
vt  0.991266 0.006136 0
vt  0.596023 0.007384 0
vt  0.788764 0.389897 0
vt  0.982719 0.323157 0
vt  0.99547 0.176075 0
vt  0.097502 0.69183 0
vt  0.174049 0.127059 0
vt  0.003329 0.361956 0
vt  0.111051 0.372656 0
vt  0.110863 0.52058 0
vt  0.981719 0.597758 0
vt  0.964105 0.624883 0
vt  0.945674 0.645155 0
vt  0.92659 0.659944 0
vt  0.907016 0.670622 0
vt  0.887115 0.678558 0
vt  0.421392 0.1378 0
vt  0.86705 0.685124 0
vt  0.415352 0.207358 0
vt  0.829978 0.276251 0
vt  0.305188 0.010092 0
vt  0.693115 0.73407 0
vt  0.452492 0.812983 0
vt  0.394009 0.944588 0
vt  0.268379 0.012627 0
vt  0.172946 0.995665 0
vt  0.002824 0.760335 0
vt  0.110572 0.749908 0
vt  0.693333 0.562022 0
vt  0.231535 0.015161 0
vt  0.194044 0.017698 0
vt  0.154838 0.020304 0
vt  0.163542 0.083353 0
vt  0.201994 0.088558 0
vt  0.237487 0.093843 0
vt  0.271526 0.099137 0
vt  0.305132 0.104433 0
vt  0.59252 0.140625 0
vt  0.092994 0.615011 0
vt  0.111966 0.023133 0
vt  0.062813 0.026385 0
vt  0.005605 0.03016 0
vt  0.007155 0.069798 0
vt  0.068257 0.073771 0
vt  0.992185 0.166666 0
vt  0.452811 0.561717 0
vt  0.907153 0.562293 0
vt  0.016874 0.616407 0
vt  0.091606 0.736014 0
vt  0.010302 0.693437 0
vt  0.011368 0.737494 0
vt  0.950981 0.657069 0
vt  0.11076 0.601984 0
vt  0.027033 0.533249 0
vt  0.026962 0.589103 0
vt  0.991014 0.740415 0
vt  0.744724 0.751226 0
vt  0.784135 0.834857 0
vt  0.119862 0.078374 0
vt  0.9574 0.469952 0
vt  0.989044 0.327921 0
vt  0.808903 0.321388 0
vt  0.506418 0.251249 0
vt  0.689818 0.77106 0
vt  0.975202 0.925524 0
vt  0.981763 0.783714 0
vt  0.994465 0.902618 0
vt  0.70218 0.841192 0
vt  0.728455 0.852669 0
vt  0.016314 0.890857 0
vt  0.983043 0.994798 0
vt  0.048361 0.511341 0
vt  0.006795 0.408022 0
vt  0.006153 0.477962 0
vt  0.092398 0.482285 0
vt  0.091453 0.409333 0
vt  0.048193 0.3722 0
vt  0.043798 0.836693 0
vt  0.004605 0.878008 0
vt  0.054784 0.848577 0
vt  0.431206 0.889068 0
vt  0.74901 0.994402 0
vt  0.494592 0.931826 0
vt  0.089739 0.978926 0
vt  0.126591 0.957665 0
vt  0.117844 0.981378 0
vt  0.00647 0.443475 0
vt  0.728103 0.912523 0
vt  0.091951 0.44776 0
vt  0.984849 0.844438 0
vt  0.798802 0.923002 0
vt  0.984936 0.845252 0
vt  0.03506 0.870819 0
vt  0.775206 0.858328 0
vt  0.960657 0.766577 0
vt  0.712337 0.991121 0
vt  0.736218 0.966962 0
vt  0.728155 0.913287 0
vt  0.493406 0.994536 0
vt  0.596023 0.007384 0
vt  0.788764 0.389897 0
vt  0.982719 0.323157 0
vt  0.99547 0.176075 0
vt  0.097502 0.69183 0
vt  0.174049 0.127059 0
vt  0.003329 0.361956 0
vt  0.111051 0.372656 0
vt  0.110863 0.52058 0
vt  0.981719 0.597758 0
vt  0.964105 0.624883 0
vt  0.945674 0.645155 0
vt  0.92659 0.659944 0
vt  0.907016 0.670622 0
vt  0.887115 0.678558 0
vt  0.421392 0.1378 0
vt  0.86705 0.685124 0
vt  0.415352 0.207358 0
vt  0.689818 0.77106 0
vt  0.975202 0.925524 0
vt  0.981763 0.783714 0
vt  0.994465 0.902618 0
vt  0.70218 0.841192 0
vt  0.728455 0.852669 0
vt  0.016314 0.890857 0
vt  0.983043 0.994798 0
vt  0.048361 0.511341 0
vt  0.006795 0.408022 0
vt  0.006153 0.477962 0
vt  0.092398 0.482285 0
vt  0.091453 0.409333 0
vt  0.048193 0.3722 0
vt  0.043798 0.836693 0
vt  0.004605 0.878008 0
vt  0.054784 0.848577 0
vt  0.431206 0.889068 0
vt  0.74901 0.994402 0
vt  0.494592 0.931826 0
vt  0.089739 0.978926 0
vt  0.126591 0.957665 0
vt  0.117844 0.981378 0
vt  0.00647 0.443475 0
vt  0.728103 0.912523 0
vt  0.091951 0.44776 0
vt  0.984849 0.844438 0
vt  0.798802 0.923002 0
vt  0.984936 0.845252 0
vt  0.03506 0.870819 0
vt  0.775206 0.858328 0
vt  0.960657 0.766577 0
vt  0.712337 0.991121 0
vt  0.736218 0.966962 0
vt  0.728155 0.913287 0
vt  0.493406 0.994536 0
# 238 texture vertices

vn  0.000001 -0.544726 -1.279551
vn  0.11174 -0.721532 -1.668961
vn  0.246116 -0.72733 -1.591645
vn  0.355219 -0.743114 -1.487171
vn  0.42438 -0.765952 -1.383058
vn  0.455729 -0.790542 -1.303535
vn  0.47016 -0.800683 -1.325314
vn  0.319334 -0.869572 -0.865939
vn  0.51066 -0.915365 -0.422804
vn  1.361726 -0.954042 0.966182
vn  1.156102 -0.510629 0.750504
vn  0.564288 -0.528153 0.381165
vn  0.339733 -0.294156 0.312073
vn  1.597536 -1.139449 1.545569
vn  0.524758 -0.840431 1.437737
vn  -0.111739 -0.721532 -1.66896
vn  -0.246116 -0.72733 -1.591644
vn  -0.35522 -0.743115 -1.48717
vn  -0.42438 -0.765952 -1.383058
vn  -0.455729 -0.790542 -1.303536
vn  -0.470159 -0.800682 -1.325314
vn  -0.321423 -0.869053 -0.872434
vn  -0.503208 -0.915771 -0.418538
vn  -1.280736 -0.999897 0.798086
vn  -1.706829 -0.392413 -0.051745
vn  -0.872716 -0.474056 0.6206
vn  -0.339734 -0.294156 0.312074
vn  -1.427483 -1.13485 1.741595
vn  0.001029 -0.287129 -0.182892
vn  0 -0.289174 0.140113
vn  0.000227 -0.267689 -0.39987
vn  -0.52476 -0.840431 1.437737
vn  0.049568 -0.502706 0.007065
vn  0.025462 -0.25823 0.003629
vn  -0.369874 0.000205 -0.929082
vn  -0.412552 0.003722 -0.910845
vn  -0.494794 0.004475 -0.868875
vn  -0.625641 0.003831 -0.780001
vn  -0.752966 0.002232 -0.658015
vn  -0.853219 0.000814 -0.521545
vn  -0.915291 0.000072 -0.402793
vn  -0.944368 -0.000052 -0.328891
vn  -0.958886 -0.000004 -0.283791
vn  -0.95428 0.000011 -0.298914
vn  -0.355703 -0.000003 -0.803208
vn  -1.662728 0.000008 -0.386393
vn  -1.106687 0.000008 1.526868
vn  -0.737 -0.000004 1.016772
vn  0.781399 -0.000006 0.076603
vn  0.000001 -0.000007 1
vn  -0.988582 -0.000001 0.150683
vn  -0.988582 -0.000001 0.150683
vn  0.821572 0.007412 -1.813889
vn  1.58976 0.014378 -2.791672
vn  2.007061 0.012291 -2.502248
vn  2.403709 0.007126 -2.100594
vn  2.706882 0.002583 -1.654632
vn  2.889528 0.000228 -1.2716
vn  2.972686 -0.000165 -1.035288
vn  2.907996 -0.000034 -0.860549
vn  2.735987 0.000012 -0.857021
vn  0.355703 -0.000003 -0.803208
vn  1.662728 0.000008 -0.386394
vn  1.106687 0.000008 1.526868
vn  0.737 -0.000004 1.016772
vn  -0.781399 -0.000006 0.076604
vn  -0.000002 -0.000009 1.452493
vn  -0.10478 0.171859 -0.801716
vn  -0.149863 0.175064 -0.78628
vn  -0.190247 0.180981 -0.761445
vn  -0.218673 0.188391 -0.732181
vn  -0.232685 0.195355 -0.705998
vn  -0.236006 0.200105 -0.689096
vn  -0.218892 0.218034 -0.628287
vn  -0.452615 0.204666 -0.551404
vn  -0.559219 0.231926 -0.238013
vn  -0.709241 0.191695 -0.257221
vn  -0.667622 0.217307 -0.025534
vn  -0.61712 0.170663 0.526967
vn  -0.441177 0.262063 -0.014184
vn  0 0.233918 -0.598749
vn  0 0.285534 -0.210133
vn  0 0.200344 -0.72762
vn  -0.181284 0.287052 -0.033158
vn  0.000001 -0.000006 1
vn  0.000001 -0.000006 1
vn  2.083787 0.262094 -1.253895
vn  -1.513188 0.006339 0.123603
vn  -1.784091 -0.231956 0.576014
vn  -0.684363 0.095031 0.211537
vn  0.022627 -0.045312 -1.15456
vn  0.304759 0.038332 -0.183385
vn  -2.590037 0.001583 0.530406
vn  0.027311 -0.054692 -1.393588
vn  1.680552 -0.211087 -1.949462
vn  0.008664 0.235572 0.591031
vn  1.204185 -0.177026 0.416004
vn  -0.00503 -0.241065 0.564509
vn  -0.838942 0.004498 0.034708
vn  -1.273925 0.006286 0.071398
vn  1.265574 0.202283 0.495387
vn  0.123806 0.008275 -3.138903
vn  -1.194095 -0.188178 0.417413
vn  0.01107 -0.022169 -0.564872
vn  -2.083786 0.262094 -1.253896
vn  1.51319 0.006339 0.123603
vn  1.784091 -0.231956 0.576013
vn  0.684362 0.095031 0.211536
vn  -0.022626 -0.045312 -1.154561
vn  -0.304758 0.038332 -0.183385
vn  2.590035 0.001583 0.530404
vn  -0.02731 -0.054692 -1.393587
vn  -1.68055 -0.211087 -1.949463
vn  -0.008664 0.235572 0.59103
vn  -1.204185 -0.177026 0.416005
vn  0.00503 -0.241065 0.564509
vn  0.838942 0.004498 0.034708
vn  1.273925 0.006286 0.071398
vn  -1.265575 0.202283 0.495388
vn  -0.123806 0.008276 -3.138903
vn  1.194094 -0.188178 0.417413
vn  -0.01107 -0.022169 -0.564872
# 122 vertex normals

g (null)
usemtl 19_-_Default
s 8
f -92/-208/-92 -103/-219/-103 -104/-220/-104
f -92/-208/-92 -104/-220/-104 -105/-221/-105
f -92/-208/-92 -105/-221/-105 -106/-222/-106
f -92/-208/-92 -106/-222/-106 -107/-223/-107
f -92/-208/-92 -107/-223/-107 -122/-238/-122
f -92/-208/-92 -122/-238/-122 -121/-237/-121
f -92/-208/-92 -121/-237/-121 -120/-236/-120
f -92/-208/-92 -120/-236/-120 -119/-235/-119
f -118/-234/-118 -117/-233/-117 -92/-208/-92
f -118/-234/-118 -92/-208/-92 -119/-235/-119
f -92/-208/-92 -117/-233/-117 -116/-232/-116
f -102/-218/-102 -103/-219/-103 -92/-208/-92
f -101/-217/-101 -102/-218/-102 -92/-208/-92
f -100/-216/-100 -101/-217/-101 -92/-208/-92
f -94/-210/-94 -100/-216/-100 -92/-208/-92
f -114/-230/-114 -94/-210/-94 -92/-208/-92
f -115/-231/-115 -114/-230/-114 -92/-208/-92
f -115/-231/-115 -92/-208/-92 -116/-232/-116
f -94/-210/-94 -114/-230/-114 -113/-229/-113
f -99/-215/-99 -100/-216/-100 -94/-210/-94
f -93/-209/-93 -99/-215/-99 -94/-210/-94
f -93/-209/-93 -94/-210/-94 -113/-229/-113
f -97/-213/-97 -98/-214/-98 -99/-215/-99
f -95/-211/-95 -97/-213/-97 -99/-215/-99
f -91/-207/-91 -95/-211/-95 -99/-215/-99
f -91/-207/-91 -99/-215/-99 -93/-209/-93
f -108/-224/-108 -91/-207/-91 -93/-209/-93
f -108/-224/-108 -93/-209/-93 -113/-229/-113
f -109/-225/-109 -108/-224/-108 -113/-229/-113
f -109/-225/-109 -113/-229/-113 -112/-228/-112
f -111/-227/-111 -109/-225/-109 -112/-228/-112
f -95/-211/-95 -96/-212/-96 -97/-213/-97
f -111/-227/-111 -110/-226/-110 -109/-225/-109
s 0
f -108/-224/-108 -90/-206/-90 -89/-205/-89
f -89/-205/-89 -91/-207/-91 -108/-224/-108
s 1
f -96/-203/-96 -75/-194/-75 -76/-195/-76
f -76/-195/-76 -97/-196/-97 -96/-203/-96
s 2
f -97/-204/-97 -76/-167/-76 -77/-168/-77
f -77/-168/-77 -98/-200/-98 -97/-204/-97
s 1
f -98/-200/-98 -77/-168/-77 -78/-169/-78
f -78/-169/-78 -99/-170/-99 -98/-200/-98
s 2
f -99/-202/-99 -78/-176/-78 -79/-183/-79
f -79/-183/-79 -100/-201/-100 -99/-202/-99
f -100/-201/-100 -79/-183/-79 -80/-184/-80
f -80/-184/-80 -101/-193/-101 -100/-201/-100
f -101/-193/-101 -80/-184/-80 -81/-185/-81
f -81/-185/-81 -102/-192/-102 -101/-193/-101
f -102/-192/-102 -81/-185/-81 -82/-186/-82
f -82/-186/-82 -103/-191/-103 -102/-192/-102
f -103/-191/-103 -82/-186/-82 -83/-187/-83
f -83/-187/-83 -104/-190/-104 -103/-191/-103
f -104/-190/-104 -83/-187/-83 -84/-188/-84
f -84/-188/-84 -105/-189/-105 -104/-190/-104
f -105/-189/-105 -84/-188/-84 -85/-171/-85
f -85/-171/-85 -106/-181/-106 -105/-189/-105
f -106/-181/-106 -85/-171/-85 -86/-177/-86
f -86/-177/-86 -107/-180/-107 -106/-181/-106
f -107/-180/-107 -86/-177/-86 -87/-178/-87
f -87/-178/-87 -88/-179/-88 -107/-180/-107
f -74/-199/-74 -75/-194/-75 -96/-203/-96
f -96/-203/-96 -95/-198/-95 -74/-199/-74
s 1
f -73/-197/-73 -74/-182/-74 -95/-175/-95
f -95/-175/-95 -91/-173/-91 -73/-197/-73
s 0
f -91/-173/-91 -71/-172/-71 -72/-174/-72
f -72/-174/-72 -73/-197/-73 -91/-173/-91
s 1
f -59/-135/-59 -58/-134/-58 -110/-155/-110
f -110/-155/-110 -111/-137/-111 -59/-135/-59
s 2
f -60/-92/-60 -59/-91/-59 -111/-156/-111
f -111/-156/-111 -112/-151/-112 -60/-92/-60
s 1
f -61/-93/-61 -60/-92/-60 -112/-151/-112
f -112/-151/-112 -113/-94/-113 -61/-93/-61
s 2
f -62/-116/-62 -61/-109/-61 -113/-153/-113
f -113/-153/-113 -114/-152/-114 -62/-116/-62
f -63/-117/-63 -62/-116/-62 -114/-152/-114
f -114/-152/-114 -115/-133/-115 -63/-117/-63
f -64/-118/-64 -63/-117/-63 -115/-133/-115
f -115/-133/-115 -116/-129/-116 -64/-118/-64
f -65/-119/-65 -64/-118/-64 -116/-129/-116
f -116/-129/-116 -117/-124/-117 -65/-119/-65
f -66/-120/-66 -65/-119/-65 -117/-124/-117
f -117/-124/-117 -118/-123/-118 -66/-120/-66
f -67/-121/-67 -66/-120/-66 -118/-123/-118
f -118/-123/-118 -119/-122/-119 -67/-121/-67
f -68/-95/-68 -67/-121/-67 -119/-122/-119
f -119/-122/-119 -120/-114/-120 -68/-95/-68
f -69/-110/-69 -68/-95/-68 -120/-114/-120
f -120/-114/-120 -121/-113/-121 -69/-110/-69
f -70/-111/-70 -69/-110/-69 -121/-113/-121
f -121/-113/-121 -122/-112/-122 -70/-111/-70
f -110/-155/-110 -58/-134/-58 -57/-150/-57
f -57/-150/-57 -109/-149/-109 -110/-155/-110
s 1
f -109/-106/-109 -57/-115/-57 -56/-148/-56
f -56/-148/-56 -108/-104/-108 -109/-106/-109
s 8
f -40/-107/-40 -65/-161/-65 -66/-162/-66
f -40/-107/-40 -66/-162/-66 -67/-163/-67
f -52/-140/-52 -51/-139/-51 -40/-107/-40
f -53/-141/-53 -52/-140/-52 -40/-107/-40
f -54/-142/-54 -53/-141/-53 -40/-107/-40
f -55/-143/-55 -54/-142/-54 -40/-107/-40
f -70/-166/-70 -55/-143/-55 -40/-107/-40
f -69/-165/-69 -70/-166/-70 -40/-107/-40
f -68/-164/-68 -69/-165/-69 -40/-107/-40
f -68/-164/-68 -40/-107/-40 -67/-163/-67
f -40/-107/-40 -51/-139/-51 -50/-138/-50
f -40/-107/-40 -50/-138/-50 -49/-136/-49
f -40/-107/-40 -49/-136/-49 -48/-132/-48
f -40/-107/-40 -48/-132/-48 -42/-125/-42
f -40/-107/-40 -42/-125/-42 -62/-158/-62
f -40/-107/-40 -62/-158/-62 -63/-159/-63
f -40/-107/-40 -63/-159/-63 -64/-160/-64
f -65/-161/-65 -40/-107/-40 -64/-160/-64
f -42/-125/-42 -48/-132/-48 -47/-131/-47
f -42/-125/-42 -47/-131/-47 -41/-108/-41
f -42/-125/-42 -41/-108/-41 -61/-157/-61
f -62/-158/-62 -42/-125/-42 -61/-157/-61
f -57/-145/-57 -59/-147/-59 -60/-154/-60
f -47/-131/-47 -46/-130/-46 -45/-128/-45
f -47/-131/-47 -45/-128/-45 -43/-126/-43
f -47/-131/-47 -43/-126/-43 -39/-101/-39
f -41/-108/-41 -47/-131/-47 -39/-101/-39
f -41/-108/-41 -39/-101/-39 -56/-144/-56
f -61/-157/-61 -41/-108/-41 -56/-144/-56
f -61/-157/-61 -56/-144/-56 -57/-145/-57
f -61/-157/-61 -57/-145/-57 -60/-154/-60
f -44/-127/-44 -43/-126/-43 -45/-128/-45
f -58/-146/-58 -59/-147/-59 -57/-145/-57
s 1
f -37/-98/-37 -89/-96/-89 -90/-97/-90
f -90/-97/-90 -38/-102/-38 -37/-98/-37
s 0
f -38/-105/-38 -90/-103/-90 -108/-104/-108
f -108/-104/-108 -56/-148/-56 -38/-105/-38
f -37/-99/-37 -38/-100/-38 -56/-144/-56
f -56/-144/-56 -39/-101/-39 -37/-99/-37
s 4096
f -29/-78/-29 -32/-81/-32 -19/-77/-19
s 1
f -25/-68/-25 -20/-70/-20 -34/-84/-34
f -34/-84/-34 -19/-61/-19 -25/-68/-25
s 524288
f -29/-75/-29 -19/-61/-19 -34/-84/-34
s 2147483648
f -23/-66/-23 -24/-71/-24 -35/-86/-35
f -35/-86/-35 -30/-85/-30 -23/-66/-23
s 1
f -24/-71/-24 -33/-90/-33 -35/-86/-35
s 67108864
f -36/-89/-36 -31/-87/-31 -33/-83/-33
s 32768
f -33/-82/-33 -31/-80/-31 -30/-79/-30
s 2097152
f -33/-90/-33 -30/-85/-30 -35/-86/-35
s 32
f -32/-81/-32 -29/-78/-29 -23/-65/-23
f -32/-81/-32 -23/-65/-23 -30/-79/-30
f -21/-67/-21 -32/-81/-32 -30/-79/-30
f -31/-80/-31 -21/-67/-21 -30/-79/-30
s 1024
f -32/-76/-32 -28/-74/-28 -19/-61/-19
s 1
f -26/-69/-26 -25/-68/-25 -19/-61/-19
f -19/-61/-19 -28/-74/-28 -26/-69/-26
f -22/-63/-22 -33/-83/-33 -27/-72/-27
f -24/-71/-24 -27/-73/-27 -33/-90/-33
f -22/-63/-22 -36/-89/-36 -33/-83/-33
s 2147483648
f -21/-62/-21 -31/-87/-31 -36/-89/-36
f -36/-89/-36 -22/-63/-22 -21/-62/-21
f -26/-60/-26 -28/-59/-28 -32/-88/-32
f -32/-88/-32 -21/-64/-21 -26/-60/-26
f -23/-56/-23 -29/-57/-29 -34/-58/-34
f -34/-58/-34 -20/-55/-20 -23/-56/-23
s 4096
f -14/-27/-14 -11/-24/-11 -1/-23/-1
s 1
f -2/-16/-2 -7/-14/-7 -16/-30/-16
f -1/-7/-1 -16/-30/-16 -7/-14/-7
s 524288
f -1/-7/-1 -11/-21/-11 -16/-30/-16
s 2147483648
f -6/-17/-6 -5/-12/-5 -17/-32/-17
f -12/-31/-12 -17/-32/-17 -5/-12/-5
s 1
f -15/-36/-15 -6/-17/-6 -17/-32/-17
s 67108864
f -13/-33/-13 -18/-35/-18 -15/-29/-15
s 32768
f -13/-26/-13 -15/-28/-15 -12/-25/-12
s 2097152
f -12/-31/-12 -15/-36/-15 -17/-32/-17
s 32
f -11/-24/-11 -14/-27/-14 -5/-11/-5
f -5/-11/-5 -14/-27/-14 -12/-25/-12
f -14/-27/-14 -3/-13/-3 -12/-25/-12
f -3/-13/-3 -13/-26/-13 -12/-25/-12
s 1024
f -10/-20/-10 -14/-22/-14 -1/-7/-1
s 1
f -7/-14/-7 -8/-15/-8 -1/-7/-1
f -10/-20/-10 -1/-7/-1 -8/-15/-8
f -15/-29/-15 -4/-9/-4 -9/-18/-9
f -9/-19/-9 -6/-17/-6 -15/-36/-15
f -18/-35/-18 -4/-9/-4 -15/-29/-15
s 2147483648
f -13/-33/-13 -3/-8/-3 -18/-35/-18
f -4/-9/-4 -18/-35/-18 -3/-8/-3
f -10/-5/-10 -8/-6/-8 -14/-34/-14
f -3/-10/-3 -14/-34/-14 -8/-6/-8
f -11/-3/-11 -5/-2/-5 -16/-4/-16
f -2/-1/-2 -16/-4/-16 -5/-2/-5
# 184 faces

g
