# Max2Obj Version 4.0 Mar 10th, 2001
#
# object sun to come ...
#
v  -7.133333 -7.133334 0
v  -7.133333 7.133333 0
v  7.133333 7.133333 0
v  -7.133333 -7.133334 0
v  7.133333 7.133333 0
v  7.133333 -7.133334 0
# 6 vertices

vt  0.9995 0.0005 0.5
vt  0.0005 0.999501 0.5
vt  0.0005 0.0005 0.5
vt  0.0005 0.999501 0.5
vt  0.999501 0.9995 0.5
vt  0.9995 0.0005 0.5
vt  0.0005 0.999501 0.5
vt  0.0005 0.0005 0.5
vt  0.9995 0.0005 0.5
vt  0.0005 0.999501 0.5
vt  0.9995 0.0005 0.5
vt  0.999501 0.9995 0.5
vt  0.0005 0.999501 0.5
vt  0.0005 0.0005 0.5
vt  0.9995 0.0005 0.5
vt  0.0005 0.999501 0.5
vt  0.9995 0.0005 0.5
vt  0.999501 0.9995 0.5
# 18 texture vertices

vn  0 0 -1
vn  0 0 -1
vn  0 0 -1
vn  0 0 -1
vn  0 0 -1
vn  0 0 -1
# 6 vertex normals

g sun
s 1
f -6/-12/-6 -5/-11/-5 -4/-10/-4
f -3/-9/-3 -2/-8/-2 -1/-7/-1
# 2 faces

g
